<?xml version="1.0" encoding="UTF-8"?>
<svg id="Calque_2" data-name="Calque 2" xmlns="http://www.w3.org/2000/svg" viewBox="0 0 237.61 289.31">
  <defs>
    <style>
      .cls-1 {
        fill: #f79c70;
      }
    </style>
  </defs>
  <g id="Logo_LD" data-name="Logo LD">
    <g>
      <path class="cls-1" d="M231.21,77.34c3.73.7,5.41,1.8,5.04,3.32,1.35-.62,1.9.68.7,1.57l-.15.91c.73.01.69.24,0,.67-.56,1.42-1.73,1.7-3.14,1.93,1.51,1,.27,1.96-.94,2.56-3.98.59-8.55,3.11-12.62,3.45-.56,1.7-3.01,1.63-4.03.34-2.45.55-4.73,1.54-6.85,2.96-.24.06-.53-.1-.77-.07l-4.59,1.79c-3.77,3.06-7.79,5.87-12.06,8.43-2.24,1.16-2.85.54-1.86-1.88-.96.37-1.59,1.25-1.87,2.63.74.2.77.5.12.9-.57,1.94-2.55,3.28-5.93,4.01l-.66,1.03c-1.66,2.44-3.99,4.41-6.99,5.91-1.56,2.07-3.5,4-6.02,2.89-2.17.41-4.02,1.26-5.55,2.54-1.31-.38-1.94-1.02-1.88-1.92-.98-1.14-1.54-1.42-1.68-.84-.02,1.63-.87,1.68-2.17.76-.84-.15-1.83-.53-2.95-1.11-1.58,2.38-2.36,4.68-2.34,6.9,1.63,2.32-1.26,5.45-3.4,3.33.08,1.55-.63,3.43-2.46,3.49,1.1.4,1.19,1.27.25,2.59l1.11,1.5c1.26-2.83,3.98-1.68,5.33-.06,1.34.33,1.15,1.42-.11,1.75-.02.27-.03.58,0,.84-.62.86-1.8.57-2.6-.02-.1,1.72-.8,1.8-1.41.21.2,3.87-1.08,4.92-3.84,3.16l-1.35,3.35c2.87.53,3.5,1.1,1.47,3.69.84,1.3,1.5,2.56,1.99,3.77.78.97.21,1.37-.93,1.08l.11.94c-1.82.56-2.1,1.57-.83,3.03,2.01-.13,3.36,3.07.77,3.56.98,1.29,2.06,1.8,3.52,2.4,2.76-.55,2.4,3.83.6,5.07,1.11.66.78,1.54-1,2.65l1.06.56c6.01-2.1,6.4,4.26,3.31,7.78,1.21.57,2.11,2.6.85,3.22,2.55,1.15,3.06,8.31,1.41,10.31.79.08.77.32.02.71-.53,1.99-.18,2.89,1.88,3.42,1.79-1.25,2.12-.3,2.34,1.57.18,1.47.27,3.04-1.1,3.54-1.3,3.24-3.25,4.83-3.87.83-.22-.82-.73-.92-1.54-.31-.18.97-.71.92-.94-.09-1.86-4.96-2.69-4.57-4.16.47-1.49,1.5-2.57,1.24-2.66-.84l-1.34.02c-.76.2-.9-.06-.45-.76-1.88-1.17-3.13-2.64-3.73-4.41l-1.1-.59-.79-2.78c-1.62,2.36-3.94,1.93-5.2-.86-2.14-.24-5.07-2.01-5.76-4.19-1.45,1.3-5.14-1-2.01-1.84-.32-1.58,2.26-3.24,3.77-3.77.64-.39.89-.19.77.57,2.07-.24,2.63-.82,1.66-1.73-1.36,1.04-1.84.44-.94-1.07.01-.63.08-1.55.43-1.62,1.53-.3,1.74,3.84-2.01-1.35-.57.96-1.99.86-2.51-.12-.71.78-1.84.68-3.37-.3-.13.74-.42.72-.84.03-.89,0-1.76.15-2.6.47-.51,1.1-.28,1.9.93,2.29,1.4.33,1.61.92.64,1.74l.95,1.72c2.19.39,1.92.98-.17,1.48.36,1.1-.27,2.1-1.5,1.85.56,1.55-2.93,1.58-4.21,1.09-.86,1.65-1.94,1.06-3.22-1.76-1.04-.13-1.85.51-2.45,1.9l-2.04-.67c-.82.55-1.49,1.28-2,2.2.74.13.7.35-.04.66.34,1.38-1.03,1.75-1.51.3l.48,1.9-5.33,1.98,1.1,4.15c3.06-.12,2.96,2.63,1.78,4.78-1.8,1.55-3.86,2.79-6.18,3.73l-.05,1.38c-1.22.42-2.18,1.34-2.88,2.75,3.69,1.01,1.57,3.25-1.19,4.2.55.9.31,1.9-.84,1.68-.2,1.61-.66,2.08-1.86.74-.38.85.15,1.3,1.02,1.78.41-.48.72-.42.92.18,2.22-1.48,6.42-2.46,4.14,1.51.26.82-.03,1.1-.84.84-.74,1.85-2.38,3.26-4.21,1.96l.08,2.68c1.3.54,1.28.95-.08,1.25.3.63.3,1.5,0,2.62,2.2-1.01,3,.18,2.53,2.49-3.38,8.62-2.11,13.88-2.51,16.09-.97,3.21-2,5.69-5.1,7.39.77-.52,1.37.58,1.8,3.32.43-1.6,1.37-.63,1.62.76,1.17-.21,1.4,1.12.83,2,.13.26.21.5.15.69-.35,1.04-1.87,5.11-2.25,5.54-.33.38-1.42-.11-2.1-.45q-1.28,1.17,0,0c1.28-1.42,1.89-1.75,2.77-.04.31.62-2.05,12.08-3.34,13.22,1.99,2.53-4.82,2.77-6.78,2.75-.33.2-.83.31-1.1.59-1.34,1.22-2.48.41-3.42-2.42-1.63-2.31-1.37-5.14-.88-7.63,1.23-2.02,1.03-3.34.12-5.57.48-1.27-.68-3.78.75-5.12.89-.88.91-1.48.04-1.8-.64-1.64-1.04-3.44-.1-5,.67-.2,1.29-.48,1.84-.84-1.11-3.06-.82-6.72.86-10.99,1.83-2.43.99-15.68.79-19.16.18-2.92,1.03-4.08,2.56-3.46.69-.57,1.03-1.22,1.03-1.95-2.28-.12-2.23-.94-.36-2.21-.71-.39-.68-.7.1-.93,1.59-1.7,3.06-3.61,4.42-5.73-.85-1.72-.15-1.72,1.56-.95l-.04-.93c-2.9,1.8-4.1-1.6-2.75-4.15-.82.16-1.61-.13-2.36-.86-1.36.21-2.7-1.3-3.24-2.6-1.66-1.6-2.52-3.3-2.58-5.11-1.1.41-1.65-2.16-1.68-3.19,0-.08.63,1.1-.73.62-.71-1.33-.43-9.76-.25-10.86.79-1.02,1.15-.71,1.69.28-1.47-1.38-1.42-3.43.13-6.16-.83-.89-.63-1.86.59-2.91-1.76-2.03-1.48-4.66.84-7.89-3.14-.47-2.47-3.5.43-3.55-.69-.37-.63-.67.14-.89l.02-1.74c2.56-1.17,2.2-3.06-1.08-5.69-.72-.18-.71-.45-.01-.82-1.81-.06-3.46-.88-4.95-2.46-.81,1.92-1.33,2.25-1.57.97.52,3.28-1.21,3.72-5.2,1.31-.99-.85-.85-1.65-.91-2.98.48-.77.72-1.69.73-2.76-.41-1.03-1.76-1.75-4.07-2.15-1.64,1.01-2.57.94-2.8-.21-1.9-.16-3.02,1.58-5.34.73-1.47-.54-3.03,2.06-4.69,2.42l-1.82.33c-1.14-.76-2.81-.49-5.02.81-1.94.63-4.09.62-6.45-.03-2.13,2.25-4.15,3.02-6.06,2.32.02,2.65-6.54,4.26-9.02,3.47-.36,1.14-1.21,1.66-2.16,2.22-1.28.55-2.59.85-3.92.92l-6.83.38c-2.55,1.26-5.62-1.42-5.23-4.34-1.14-3.61,5.08-3,3.85-6.82,1.38,1.08,2.76.15,3.92-.71,1.03-.86,2.09-1.64,3.18-2.33.36-1.14,3.26-.1,3.26.32,0,.34-2-.44-.31-1.39.18.06.43-.05.63-.06,1.65-1.52,3.07-1.89,4.25-1.12,1.2-2.15,2.7-1.96,4.16-.64-.63-2.04,2.06-3.18,3.41-1.63-.06-.71.68-.77,2.22-.16-1.41-2.49,2.37-7.03,5.35-6.57.66-1.68,4-3.15,5.88-3.25,2.33-2.75,5.23-4.48,8.7-5.19l.64-.96c-.23-.57.54-1.06.76-1.44.55-.78,1.73-1.22,2.44-.36,2.12-.85,4.13-3.02,5.42-5.14,1.46-1.15,6.95-4.5,8.34-3.64.32.2.44.71.51,1.31.93.7,4.72-2.82,5.21-5.83-.72-1.1.52-1.86,1.62-2.24.25.06.58-.25.85-.26,1.52-2.22,3.29-3.79,5.3-4.69l.92.46c1.89-1.88,3.79-3.49,6.41-4.16,1.02-1.61,2.12-3.1,3.32-4.49,1.87-.66,3.01-2.29,3.44-4.88-1.06-1.25-.58-1.71.91-.95l2.47-2.84c.25-.9.58-1.77,1-2.6-2.01-1.25-.64-6,1.39-3.78,1.86.28,3.06.93,3.57,1.95,1.43-.28,2.15-.41,2.15-.41,1.12,1.58,2.42,2.82,3.89,3.72,1.2-.56,2.28-.57,3.23-.03-.77-1.2-.3-1.65.99-1.02.77-2.06,1.77-3.11,3.01-3.14,1.81,1.39,3.21,1.47,4.18.26-1.72-3.66,5.88-1.27,2.65,1.37,2.28-.07,2.25.87.12,1.68v.84c1.37,1.12,1.38,3.14.02,6.06,2.03,1.25,1.5,2.11-.84,2.36-.68.47-.74.97-.15,1.5,2.54.44,3.45-.23,2.73-2l1.56-1.19c-.23-1.62.43-1.65.99-.05,3.15.06,5.05,1.27,5.71,3.65,2.09-.08,3.38.91,4.87,2.26.53.03,1.52.08,1.98-.09,1.11-.13,1.37,1.18,1.45,2.06.01.13-1.02-1.66.24-2,3.24-.36,6.31-2.25,9.5-1.23,1.02.03,2.08.15,3.15.35.37-.48,1.16-.48,1.6-.75.7-.47,1.61-.74,2.74-.81.3.06.76-.39,1-.15.36.35.47.79,1,1.79,2.14-5.31,3.24-.16,7.94-3.4,1.01-.4,2.24-.82,3.4-.8.24-.06.57.14.78.04,1.43-1.35,3.44-1.95,6.03-1.79,1.31-1.53,3.43-.36,5.31-1.36l2.65-1.41c.41-.22.83.56,1.27,1.02,1.16,1.35,1.7,1.31,1.61-.1.48-.54,1.04-1.11,1.73-1.38l3.24.07c2.79-1.41,5.65-2.57,8.59-3.47-2.12-1.06,3.32-2.85,5.21-2.44,1.05-1.41,4.84-3.29,6.59-2.55.2-1.01.47-2.26,1.69-1.91,3.16.05,6.11-.88,9.21-1.45.96.1,1.85-.08,2.65-.53.51-.21,1.23-.07,1.7-.36Z"/>
      <path class="cls-1" d="M104.86,10.05c.99,3.27,2.25,6.77,1.84,10.17,1.19,4,1.89,8.2,2.1,12.61l-1.28,1.36c1.44.89,2.74,2.12,3.89,3.7.04.97,1.52,1.62,1.83,2.74l3.17,11.55c-.31,1.68-.02,3.29.87,4.86-.09.23.09.66.12.91.46,1.87.97,3.57,1.52,5.08.81.02,1.19,1.13,1.62,1.59.07,2.46-.56,2.35-2.36.87-.15.77-.44.74-.84,0-1.24.66-1.58,1.3-1.03,1.91.76.42,1.39,1.21,1.89,2.38.72.3.7.61-.04.93,6.39,1.28,3.48,8.91-2.63,6.7-2.57,1.25-4.75,1.52-6.52.82.29,1.34-1.09.85-1.78-.05-.72-.93-1.58-1.52-2.59-1.77-.58,2.43-1.82,5.45-3.36,2.3-2.02.36-1.77-.76-.96-2.31-1.78-2.38,2.65-7.39,5.36-5.18.81-.69,1.28-1.48,1.4-2.38-.51-.56-.99-.5-1.43.16.72.31.69.61-.06.91-2.5,1.97-5.01-1.77-2.6-3.5.64-1.72.31-3.6-.99-5.66,1.73-.63,1.82-2.68-.02-3.93l-.75-3.64c.15-.28-.12-.78-.03-1.09-1-2.05-2.2-4.92-.65-6.71-1.84-1.23-2.31-2.93-2.6-5.09-1.08-1.94-2.51-4.78-.92-6.7-.77-3.82-1.73-8.08-3.39-11.78-.15-.71-1.01-1.67.53-2.68l-1.18-2.19c.15-1.62.13-3.36-.06-5.22-2.67-.81-1.96-3.89.79-4.21.32-4.37,6.75-.04,7.84,2.72,1.25-.86,2.34-.9,3.28-.13Z"/>
      <path class="cls-1" d="M163.69,212.02c1.34-.87,2.19.69.77,1.65.96.53,1.54,1.01,1.74,1.41.7-1.97,2.11-1.41,2.62.57.78-.04.87.24.32.81,1.47.21,1.34.68-.38,1.41-.79,1.63-.55,1.54.73-.25,1.34-1.45,3.7-1.61,3.31.89,2.12.01,2.72,2.34,1.8,4.28,1.11,1.12.68,1.63-.78.97-.5.93-.22,1.43.84,1.49.97-1.14,2.35-.87,4.14.79,1.82,1.98,3.31,4.3,4.47,6.96.6.26.95.59,1.42,1.04.5,4.03-.9,5.57-4.75,3.06l-1.78.38c.63,2.74-1.97,3.99-4.27,4.6l-2.38-2.94c-1.18-.75-2.59-2.24-1.45-3.32l-2.77-2.64c1.26-1.75,1.71-3.22,1.37-4.4-1.78-1.09-3.61-1.73-5.46-1.9l.36-2.12c-2.21.37-2.39.08-1-1.66-2.32.62-3.45-.46-2.26-2.68-3.41-.65-4.11-9.05.16-5.98-.24-2.87,1.27-5.84,3.25-2.43Z"/>
      <path class="cls-1" d="M157.31,121.22c2.53.42,4.81,1.01,6.84,1.76l-.43,2.24c.03.3-.19.65-.13.94-.43.92-1.52,1.78-2.44,1.77.35,1.32-1.15,2.59-2.38,3.18-.11.49-.61,1.36-.94,1.73-1.26.92-2.67,1.44-4.21,1.56-.59,1.3-2.28,1.42-2.57-.06-2.84-.71-3.65-2.05-2.43-4,1.19-.35,2.54-2,3.4-3.33-.02-.76.15-.81.51-.14l2.05-3.12c-1.02-1.3-1.1-2.52-.22-3.64.47-.43.65-1.29,1.51-1.59.49,1.35,1.09,1.93,1.44,2.7Z"/>
      <path class="cls-1" d="M116.42,190.39c2.15-.12,2.48.29.98,1.24-2.41,1-4.37,2.22-5.86,3.64-.27.49-.56.96-.87,1.41-1.45,1.54-2.08,2.46-2.79,4.53-.84,1.46-1.87,2.79-3.1,3.99-.24.94-.8,1.2-1.59.63-.15-1.58-1.15-3.39-1.78-4.78l-1.1-4.15c-.59-2.73,3.62-1.94,4.86-3.88,1.6,1.23,2.1,1.13,1.51-.3l.04-.66c-.11-1.39.56-2.12,2-2.2,1.78-1.54,4.32-1.61,6.88-2.4.09,1.19-1.07.99-1.32,1.49-.36.71.53,1.09.93,1.26.28.11,1-.1,1.21.19Z"/>
      <path class="cls-1" d="M96.35,3.18c1.03-.43,2.15-.66,3.34-.68-.24-1.71,1.09-1.75,1.59-.09.59.22,1.05.66,1.59.97l1.48,4.99.51,1.69c-1.36,1.41-3.23,2.07-5.09,3.48-.23-1.67.53-2.52.1-3.25-.64-1.09-5.14-4.28-6.14-2.81-1.39,1.05-2.26,1.17-2.62.37-2.97-3.5,2.71-9.02,5.23-4.65Z"/>
      <path class="cls-1" d="M150.14,140.43c1.46-.2,1.76.38.45,1.18,3.74,3.45-3.58,7.81.06,11.33-.15,2.97-2.87,4.2-3.65,1.67-.77-1.08-2.37.44-3.54-.9-.61-.7.09-1.24.31-1.62.27-.47-.91-.92-.8-1.43.2-.91,1.67-1.24,1.57-1.97-.07-.52-.74-1.18-1.01-1.52l1.55-1.9c2.5-.44,3.71-1.98,3.64-4.61.37-.19,1.11.08,1.41-.21Z"/>
      <path class="cls-1" d="M122.27,70.35l1.57,1.15c.37,1.61-.02,2.6-1.39,3.36l2.42,1.5c2.02.99,1.96,3.26,2.61,5.03-.31.71-.6.67-.85-.08.22,1.2-1,2.31-2.07,2.08-.73-.16-4-1.83-3.13-2.65l-.71-.05c-.56-.6-1.19-.81-1.89-.64-1.05,3.66-5.74-.82-3.29-2.65-.3-.34.08-1.41.47-1.69.32-.22.92.61,1.62.57,1.22-.07,2.45-.98,3.2-1.9-1.25-1.51-2.73-2.29-2.67-3.68.75-2.19,2.72-1.95,4.11-.36Z"/>
      <path class="cls-1" d="M156.09,184.61c.5-.84.77-.8.82.17.48-.15.87-.24.98-.1.92,1.17,3.81,5.36,4.4,6.42.09.17-.04.46-.25.79,0,.4-.14,1.16-.07,1.59,2.25,3.82.64,4.7-3.13,4.29-.18.71-.37.65-.58-.11-.98-.28-1.78-1.09-2.4-2.43-1.34-3.26-.97-6.86-1.41-10.31-.19-1.97.66-1.97,1.63-.29Z"/>
      <path class="cls-1" d="M160.45,214.45c-3.64-.9.93,5.34-.16,5.98.36,2.02-1.52,2.83-3.29,2.47-.17.4-.34.9-.8,1.28-1.3-.6-1.05-2.15-1.74-2.92-.23-1.1-.9-1.78-1.8-2.47-.37-.48-1.33-1.18-1.6-1.75-1.27-1.41-1.01-1.91.9-1.68-.49-3.03,1.17-3.87,5-2.52-.85-1.05-.35-1.49.84-.66,1.51-2.49,4.68.14,2.65,2.28Z"/>
      <path class="cls-1" d="M130.91,88.95l2.59,3.44c1.71,1.59,4.04,5.38,5.46,7.61.36.02-5.71-.65-5.77-.67-1.14-.46-.76-2.42-1.67-3.01-.66-.43-1.99.5-2.42-.01s-.88-1.61-.73-2.22c-2.16-1.19-.56-4.18,1.18-5.1-.11-.75.13-.79.68-.18l.67.13Z"/>
      <path class="cls-1" d="M111.25,33.34c-.32,2.85-2.6,3.62-3.72.85-1.24-2.39-1.17-10.93-1.04-10.65-.47-1.02-1.89-.47-2.75-1.46,1.33-1.2,3.08-.26,2.97-1.85,1.85,1.46,2.87,3.73,3.33,6.35l1.21,6.77Z"/>
      <path class="cls-1" d="M90.37,265.19c.13-.78.41-.84.84-.17-1.28,6.12-1.61,12.75-4.07,18.49.09,1.59-.54,1.91-1.54.65-.63-1.33.53-2.55.76-3.89.33-1.98-.55-4.06.57-5.95.35-.6,1.04-1.47.83-2.08s-.92-1.41-1.59-1.27c2.37-1.26,1.74-4.65,4.2-5.78Z"/>
      <path class="cls-1" d="M158.55,183.37c.21,1.78.13,2.15-1.63,1.41-.04-.34-.59-.21-.82-.17l-.9-.03c-.12-1.3-.64-2.26-1.58-2.89-1.46-1.67,1.89-4.91.8-6.28-.53-.67-1.86-1.2-2.6-1.03-.57.12-1.07,1.91-1.69,1.94-1.94.09-.91-2.06-.88-2.97.55-1.87,3.78-2.44,5.14-1.6.34,1.82,1.16,3.41,2.46,5.18,1.08,1.47-.53,2.78-1.71,3.65,2.57.28,3.01,1.26,3.43,2.8Z"/>
      <path class="cls-1" d="M75.22,180.8c2.06,1.56.05,3.1-1.94,2.54-1.97-1.2-2.29-3.64-1.32-5.65.16-2.4.95-4.15,2.39-5.25-1.59-1.67-1.04-2.48,1.63-2.45.11-.74.33-.71.66.02.43.47,1.44,1.04.97,1.83-.39.66-1.5.91-2.51,1.74.09,2.62,2.8,3.02,3.86,5.68-1.78.38-3.01.59-3.75,1.56Z"/>
      <path class="cls-1" d="M147.75,158.99c1.81.1,3.37,1.39,3.48,3.26.79,2.5,2.8,4.97,1.88,7.57.88,2.01-2.23,2.72-2.86.87-1.39-1.49.5-3.55-.6-5.07-2.37-.35-3.54-1.15-3.52-2.4,0-1.23-.22-2.46-.77-3.56-1.44-.89-1.05-1.56.67-1.32.95-1.39,1.94-1.02,1.73.65Z"/>
      <path class="cls-1" d="M138.41,196c1.97,1.37.36,3.54-1.13,4.53-1.47,1.59-3.89-3.78-9.86-7.96-1.44-1.1-1.42-1.64.04-1.62,1.8,2.2,4.34,3.68,7.59,1.69.91,1.32.12,2.02-.02,3.39,1.6-.27,2.54-.86,3.39-.02Z"/>
      <path class="cls-1" d="M208.44,94.97c-1.52,1.99-5.25,1.95-6.59,4.43-1.12,2.08-3.08,1.62-4.1,2.45-2.12,1.73-4.28,4.47-7.73,3.61.19,1.08.29,1.53,0,1.78-.2.17-.55.13-.74.18-.69.65-1.06.46-1.11-.59.02-.29-.19-.61-.12-.9-.06-1.49.16-2.82,1.87-2.63.08.54.48,2.31,1.5,1.53.67-.51.07-1.98.95-2.57.49-.33,1.4.06,2.38,0,.78-.05,1.2-.95.66-1.42-.43-.37-1.36-.64-1.23-1.67,1.59-.09,4.39,1.94,5.46.5,2.31-3.12,7.69-6.51,8.78-4.72Z"/>
      <path class="cls-1" d="M168.65,228.79c.58,1.23,2.58,1.33,3.51,2.17-1.3.84-2.33,1.01-3.12,2.01-.61.77.54,1.93,1.01,2.86-1.11.54-2.37-.1-3.78-1.93-3.03-.46-1.93-3-4.16-5.12,1.07-3.95,4.08-1.68,6.14.61l.4-.6Z"/>
      <path class="cls-1" d="M74.27,110.39c-.19.99-.97,1.56-1.62,2.24-.01,3.48-2.61,4.97-5.21,5.83-2.13-.83-3.94.21-5.61,1.78-.63.58-2.61-.49-3.24.56,3.54-5.81,7.74-2.93,11.62-7.87,1.28-1.63,2.13-3.03,4.07-2.53Z"/>
      <path class="cls-1" d="M40.5,153.32c.58-1.51,1.19-1.22.9.44.04,1.51-1.85.74-3.02.79-7.83.36-5.82,2.58-6.73,2.4-.4-.08-.21-1.23-1.07-.6-1.87.83-3.98,1.65-2.6-.76,2.05,1.09,7.64-7.59,7.08-8.27,1.38.23,1.41.54,1.48.74.14.38.88,1.17.41,1.45-.27.16-.95-.24-1.42.22-.54.52-.73,1.51-.66,2,.07.42.8,1.03,1.89.73.56-.16-.26-1.28.62-2.3,1.22,1.55,1.46,3.39,3.11,3.15Z"/>
      <path class="cls-1" d="M103.01,66.38c.07,1.54,1.33,2.8,2.6,3.5,1.64.06,1.65.72.08,1.31l-3.49,2.27c-.6.39-1.44.07-1.65.49-.43.86-.28,1.65-.23,2.42.27,1.43-.03,1.76-.9.99-.58-2.44,1.28-4.69,1.27-7.54,0-2.49.33-4.71,1.39-6.58,1.83-.16,1.78,1.81.93,3.14Z"/>
      <path class="cls-1" d="M168.59,120.68c-.23,2.54-2.39,4.25-4.86,4.55-2.39-4.03-5.1-1.13-6.41-4,.74-.22,1.46-.47,2.17-.76.26-.54.82-.26,1.68.84,2.33,2.42.95-3.47,7.43-.62Z"/>
      <path class="cls-1" d="M103.01,66.38c-.05-1.28,0-2.2-.93-3.14-.62-.63-.75-1.81-1.82-2.68,1.45-1.04,2.31.4,2.97-.75-1.86-2.45-3.15-4.58-1.98-6.67,1.75,1.91,3.9,1.81,6.92,1.59-1.65,1.54-3.67.89-5.45,2.12l4.11,1.95c-1.13,1.51-3.24.85-3.9,2.65-.28.93,1.45,1.84,1.37,2.67-.09.9-.47,1.82-1.29,2.27Z"/>
      <path class="cls-1" d="M128.4,181.65c1.47-1.78,2.92-.6,2.3,1.44-.11.95-.6,1.96-1.48,2.23-.59.73-.43,1.63-.49,2.99-1.41-.36-2.7-.42-3.28.79-.54,1.06-1.92,1.39-3.12,1.58-.2.03-.64,0-.82.11-1.53.34-2.17-.44-.87-1.5.32-.77.49-1.67,1.5-1.85.25-1.67.43-1.93,1.98-1.9-.46-2.2,2.76-5.73,4.28-3.89Z"/>
      <path class="cls-1" d="M87.75,101.73c-.64-.52-.55-.81.27-.89-1.18-1.34-1.73-2.01-.18-3.32,1.14-1.17,2.54-2.32,4.18-3.46,0-.27.1-.57.06-.84.49-.98,1.32-1.22,2.43-.86,0,1.5,1.24,2.48,1.89,4.15-1.53.98-3.14.17-4.27,1.33-.81.82,1.18,1.39,1.73,2.12-2.69.41-4.6.16-6.11,1.77Z"/>
      <path class="cls-1" d="M91.22,251.71c-.52,2.81.35,5.4.17,8.25-.42.77-.76,1.61-1.02,2.52.23.82-.04,1.06-.82.7-.28-.38-1.17-.72-1.62-.76l-1.7-.58c1.22-1.65,1.19-2.57-.1-2.75.35-2.92,3.1-5.29,5.1-7.39Z"/>
      <path class="cls-1" d="M71.18,154.85c2.11,1.61,2.13,6.17.29,7.94-.04.75-.26.74-.65.04-.46,3.49-3.65.26-3.41-2.2.06-1.74-1.72-2.41-2.99-3.5,1.13-.24,2.48.52,3.87-.13.65-.48.03-1.69.49-1.98.69-.44,1.91-.02,2.42-.16Z"/>
      <path class="cls-1" d="M79.59,211.21c2.08.91,1.88,1.92-.38,2.42,1.35.25,2.71,1.97,2.02,3.35-.55,2.48-2.06,3-4.52,1.57l-1.08-8.29c.91-2.63,3.65-1.73,3.97.95Z"/>
      <path class="cls-1" d="M184.68,234.06c1.32,1.26.67,2.83-.04,4.5-.6,1.41-2.32,1.56-3.85,1.95-.7-.21-1.34-.83-1.92-1.86-1.34,1.38-1.62.51-.72-1.15.17-.27-.26-1.38.23-1.64.11-.06,3.08.42,3.47.07.66-.59,0-1.72.92-2.08.85,1.12-.29,1.92-.34,2.36s.63.81,1.38,1.04c.07-1.5.44-2.29.85-3.19Z"/>
      <path class="cls-1" d="M150.65,152.94c.25,1.27,0,2.63-.05,4.15,1.31,1.65,1.64,3.61.62,5.17-1.8-.21-3.28-1.43-3.48-3.26l-.71-2.65c-.63.46-.93.2-.97-.65-.26-.42.56-1.05.93-1.08,2.42-.19-1.74,2.36,3.65-1.67Z"/>
      <path class="cls-1" d="M97.01,84.65c.68-.29,1.31.16,1.87,1.33.51-.15,1.48.69,1.39,1.21-.16.9-1.73,1.31-2.4,1.39.49,1.78-.55,3.16-2.47,2.84l-.91.95c-.33.34-.72.68-.92,1.27-.31.92-.91-.15-1.51-.41-.33-2,.63-3.9,3.07-4.58.93-1.41.26-3.42,1.87-3.99Z"/>
      <path class="cls-1" d="M73.4,186.69c.18-1.1-1.21-1.93-.12-3.35l1.94-2.54c.34,1.66,2.17,1.3,3.94,1.67-1.26,1.35-2.97,1.34-4.63,2.17.7,1.88,2.61,3.02,1.88,5.06-1.94-1.06-1.45-3.01-3.01-3.02Z"/>
      <path class="cls-1" d="M204.16,86.58c-.22,3.09-7.46,1.17-3.36,3.86-1,1.41-2.08-.11-3.48-.3-1.75,1.65-3.47.95-4.99-.16,2.44-.98,5.27-.97,6.76-3.35,1.34-.8,4.15-1.17,5.07-.05Z"/>
      <path class="cls-1" d="M34.76,137.14c-.66.98-1.77,1.44-3.85,1.85,1.56,2.35-.26,3.27-1.51,4.72-2.41,1.22-5.14-.91-2.48-2.93-3.47,3.26,8.33-6.42,7.05-5.12,2.11-.8,2.38-.08.78,1.48Z"/>
      <path class="cls-1" d="M163.75,195.89c.77.45,1,1.35.71,2.7.02.72-.07,1.78.2,2.46.41,1.4-.53,2.7-1.8,1.68-1.43.4-1.93-.49-1.5-2.67l-1.02-1.54c-.97.87-1.52.51-1.48-.76.49-1.09,1.63-1.58,3.06-1.38.54-1.11.2-2.02.07-2.91,1.02.39,1.27,1.67,1.78,2.42Z"/>
      <path class="cls-1" d="M169.64,209.38c.39,1.34.38,2.49-.04,3.45,1.34.67.96,3.03-.78,2.83-1.01-.22-2.22-.26-3,1.32-1.24-.69-1.54-1.95-1.35-3.31.49-.75.79-1.59.93-2.52-1.56-.32-1.45-.94.19-1.15-.12-2.55,1.09-3.15,3.03-1.47.31.31.76.52,1.04.86Z"/>
      <path class="cls-1" d="M88.02,100.85c-.1.23-.23.63-.27.89-.09.55-.06,1.49-.63,2.07-.35.36-1.34-.19-2.03.34-.77.61-.84,2.17-1.91,2.44-.51.13-1.24-.53-1.85-.7-.69-.26-.7-.56-.04-.88.14-2.12,1.89-2.79,3.69-3.5.4-1.85,2.42-2.9,3.04-.66Z"/>
      <path class="cls-1" d="M188.19,106.84c.47-.12,1.79-.24,1.11.59-1.45,2.68-3.71,2.95-7.7,4.45l-.55-.82c-.28-.42,1.54-.29.69-5.17.63,1.17,1.35,2.5,2.81,3.02,1.07.38,2.55-1.45,3.64-2.06Z"/>
      <path class="cls-1" d="M78.62,206.3c2.42-.27,3.31,4.26.97,4.9-1.28-.47-2.58-1.01-3.97-.95-.24-1.81-1.27-3.92-.42-5.89,1.94-1.02,3.16-.12,3.42,1.94Z"/>
      <path class="cls-1" d="M49.98,127.73c.41.57,1.07,1.04.42,1.79-1.67,1.92-3.21-2.98-7.84,4.7-.44.73-1.51-.12-1.92-.34-1.48.5-1.48.15-.02-1.06l5.58-4.43c1.12-.89,2.71-.43,3.79-.66Z"/>
      <path class="cls-1" d="M95.07,232.23c-1.06,1.98-1.87,1.65-2.88-.28-1.23.52-1.68-.36-.97-1.45-.6-.32-.43-.89.08-1.25-.47-1.52.23-2.07,1.6-1.27.69-1.09,1.53-2.22,2.53-3.37.31-.25.58-.55.84-.84.24-.73.52-.72.84,0-1.06,2.74-1.01,5.82-2.04,8.46Z"/>
      <path class="cls-1" d="M30.59,156.35c-1.48,1.09-11.12,6.39-11.62,2.71.19-.61,8.36-1.71,9.02-3.47.2,1.23,1.67.97,2.6.76Z"/>
      <path class="cls-1" d="M117.4,191.63c-1.36,1.88-3.38,4.05-5.86,3.64-.25-.43-.7-.92-.69-1.47,0-.72,1.59-1.42,1.36-2.13l-.67-2.04c-.15-.45,1.69-.53,2.16-.44,1,.19-.49,1.47-.3,2.25.29,1.19,3.08.7,4,.18Z"/>
      <path class="cls-1" d="M97.05,33.56c-1.71-1.13-1.56-3.02-1.99-5.06l-1.4-6.72c2.2,1.14,1.56,4.34,2.83,6.33,1.44,2.24,2.05,3.64.55,5.45Z"/>
      <path class="cls-1" d="M168.6,208.53c-1.04.42-2.03.95-3.03,1.47-.73-.04-.78-.29-.17-.75-1.59-.7-2.94-1.36-1.7-3.16-.53-1.07-.49-1.86.84-1.68-1.23-1.08-.5-2.45.95-1.68,1.19,1.98,3.14,3.31,3.11,5.79Z"/>
      <path class="cls-1" d="M81.3,105.01c.07.29.09.59.04.88-1.41.41-2.29,1.77-3.73,2.42.22,1.12.6,1.65,1,2.51-1.66.7-2.47-.23-3.48-.7-.04-.88,2.49-4.98,3.39-5.32s1.89.1,2.78.2Z"/>
      <path class="cls-1" d="M47.34,152.18c-.5.11.54,1.17-5.93,1.58l-.9-.44c.42-2.43,2.48-2.8,4.97-4.18.41.98.72,2.24,1.86,3.04Z"/>
      <path class="cls-1" d="M101.28,78.69c.29,1.11-.04,2.28-1,3.52-1.76.4-1.85,2.27-1.39,3.78-.96.28-1.29-.63-1.87-1.33.5-2.5.75-5.24,2.41-7.29.28-.34.58-.67.9-.99.27.79.57,1.57.96,2.31Z"/>
      <path class="cls-1" d="M163.54,224.77c1.09.95.61,2.29-1.43,4.01-2.35-.54-3.49-2.77-4.11-5,.46-2.22,3.06-1.46,4.54-.67.44.48.67,1.12,1,1.66Z"/>
      <path class="cls-1" d="M6.06,162.58c-.07.58-.27,1.14-.69,1.28.07-.02-4.9-.04-5.36-2.75-.15-.87.81-2.09.81-2.87,1.8,1.47,2.8,3.98,5.23,4.34Z"/>
      <path class="cls-1" d="M76.07,259.12c-.62,1.4-1.35.6-1.72-.72.63-3.52.35-7.31,2.58-10.27.67,2.03.37,3.71-1.47,6.31,1.24,1.23,1.8-.71,3.13-.22-.37,1.36-1.66,1.09-2.27,1.97-.44.64.08,2-.25,2.93Z"/>
      <path class="cls-1" d="M174.61,117.79c1.9-2.51,3.97-4.77,6.99-5.91,1.84,2.79-5.02,5.86-6.99,5.91Z"/>
      <path class="cls-1" d="M86.99,286.89c-1.23,1.09-2.94,1.29-5.11.6l-2.18.51c-.84.2-.89-.3-.88-1.11,3.13-1.9,5.04-.2,6.78-2.75.5-.25,1.01-.47,1.54-.65.55,1,.43,2.32-.14,3.39Z"/>
      <path class="cls-1" d="M104.79,207.78c-1.33,1.95-2.2,2.23-2.62.84-.87-.94,0-2.08,2.61-3.42-1.21-1.84,1.35-3.62,3.1-3.99.3-.73.57-.69.83.08-.92,2.34-2.66,4.34-3.92,6.48Z"/>
      <path class="cls-1" d="M78.64,205.22c1.06.55,1.14.76-.02,1.08-1.43.03-2.5-.94-3.42-1.94.13-.3-.28-.78-.21-1.1-.81-1.04-.26-2.96,1.07-3.15,1.07,1.12,2.36,1.84,4.15,3.02-.66.56-1.33,1.23-1.57,2.09Z"/>
      <path class="cls-1" d="M29.41,143.71c-3.62,4.21-3.1-1.86-5.63,1.79-3.36.75-2.98-1.64-.15-2.53,1.16-.57,2.35-1.29,3.31-2.19-.87,1.44,1.56,2.14,2.48,2.93Z"/>
      <path class="cls-1" d="M130.25,88.82c-.22-.04-.45.15-.68.18-2.49.86-4.99-3.35-2.74-4.95-2.51-.44-2.28-1.7-.2-2.75l.85.08c.92,2.5,3.61,4.64,2.77,7.43Z"/>
      <path class="cls-1" d="M81.3,223.57c.24.24,1.2.12,1.24.6,0-.09-1.13,4.41-2.54,3.56-.38-.23-.59-.96-1.08-1.43-.49,1.34-.47,2.17-1.2,2.67-.11-1.85.12-3.57-.87-5.26,1.1-1.62,3.6-2.29,4.46-.14Z"/>
      <path class="cls-1" d="M97.99,221.24c-2.52.22-2.45-1.12-.77-2.71-4.71-.67.34-3.93,3.26-4.02-1.39-.39-1.63-1.52,0-1.68-1.39-1.94-.42-2.88,1.69-1.68,0,3.67-2.34,6.94-4.18,10.09Z"/>
      <path class="cls-1" d="M64.24,151.39c-.14.82-.63.84-.84,0-1.17-.05-1.73-1.24-2.38-1.43-1.09-.32-1.99.52-3.07,1.43-.77-.5-.48-1.54-.57-2.36,1.65.14,3.08-.4,4.3-2.17,1.25.54.5,1.34.5,1.71.02,1.43,7.25,2.23,2.07,2.82Z"/>
      <path class="cls-1" d="M162.05,191.89c.11-.56-.12-.64-.46-.54-.4.12-.77.26-1.89.38,1.51-3.85-2.5-4.44-2.78-6.94.37-.65.95-1.12,1.63-1.41,1.59,5.88,4.29,6.94,4.16,7.84-.04.3-.66.44-.66.68Z"/>
      <path class="cls-1" d="M101.22,52.05c-1.99-1.6-2.01-4.31-1.75-6.71.03-1.4.54-1.29,1.1,0l-.22,3.51c1.41-1.05,5.97,1.45,6,1.11-.07.93.3,1.82-.48,2.14-.69-1.36-1.44-1.73-2.41-1.89-1.13-.18-1.94.73-2.23,1.84Z"/>
      <path class="cls-1" d="M74.35,172.43c-.09,1.96-.06,4.99-2.39,5.25-.87-.69-.92-1.74-1.11-2.73-.32-3.9,3.63-7.57,3.5-2.52Z"/>
      <path class="cls-1" d="M111.25,33.34l.17,4.55c-.95.07-2.47.72-3.02.09-.82-.92-.37-2.84-.87-3.79,1.31.32,2.56-.27,3.72-.85Z"/>
      <path class="cls-1" d="M178.87,238.65c1.36-.18,1.36,2.16-.08,2.26.48,1.88-3.18,3.32-4.23,1.54-.17-.15-.55-.17-.69-.34.86-.79-.12-1.66,0-3.19.77.38,2.4,1.53,2.95.67l1.34-2.08c-.29.54.46.71.72,1.15Z"/>
      <path class="cls-1" d="M80.94,221.36c.22.69.24,1.51.36,2.21-1.52.04-3.15,1.21-4.46.14-.35-1.04.72-2.96.11-4.04,1.19-1.81,3.6-.73,3.98,1.7Z"/>
      <path class="cls-1" d="M144.49,204.53c1.9-.84,2.9,5.49,1.51,6.48-2.41-.12-3.16-3.11-4.31-4.91-1.37-.94-.92-1.49.68-.89-.62-.46-.52-.72.27-.79.19-.82.66-1.03,1.41-.64.17.24.27.53.45.76Z"/>
      <path class="cls-1" d="M93.01,16.9c-.75-1.39-1.16-2.76-.93-4.33-.97-1.57-.58-2.19.87-.89-.21,1.7,2.36,1.84,3.03,2.65.64,1.54-1.87,2.53-2.98,2.57Z"/>
      <path class="cls-1" d="M215.74,79.97c1.39-.23,1,.64.22,1.62-2.05,1.24-4.63,1.14-6.59,2.55-1.6.5-2.49.19-2.68-.93,1.14-1.48,3.21-.23,5.01-1.03,1.52-.68,2.33-2.7,4.04-2.21Z"/>
      <path class="cls-1" d="M162.54,223.11c-1.09,1.56-2.89.95-4.54.67-.17-.59-.13-1.31-1-.89.47-1.42,1.85-2.26,3.29-2.47.68.95,1.46,1.83,2.26,2.68Z"/>
      <path class="cls-1" d="M97.22,218.53l.77,2.71c-.51.88-.52,1.61-.88,2.53h-.84c.12-3.69-2.37.14-4.14-1.51-.69-.04-.61-.6-.08-1.02.44-1.4.7-2.22,1.69-.84.07-2.15,1.74-3.79,3.48-1.87Z"/>
      <path class="cls-1" d="M75.98,169.98l-1.63,2.45c-.31-.34-.69-.7-.85-1.24-.79-2.72-2.21,5.26-2.65,3.77-.25-1.34-.76-2.94-.05-4.22-.96-1.87-.35-2.82,1.55-1.58,1.22-1.99,3.36-1.46,3.63.82Z"/>
      <path class="cls-1" d="M70.82,162.84c1.52,1.14,2.73,2.95.22,3.65-.16,2.25-.95,2.19-1.69.08-.63-1.98-3.08-3.9-1.94-5.94-.06,1.76,1.89,2.29,3.41,2.2Z"/>
      <path class="cls-1" d="M148.39,210.93c1-1.19,1.91-1.17,2.73.06.35-.68.6-.58.74.23,1.56,1.27.36,3.1-1.53,2.45.63,2.3-.27,2.3-1.81.85-1.12-1-1.87-2-2.53-3.5-.74-2.66,2.56-3.06,2.39-.09Z"/>
      <path class="cls-1" d="M180.72,241.41c-1,.91-1.99,2.7-3.55,2.73-1,.02-2.83-.06-2.61-1.7,1.53.64,2.64-1.28,4.23-1.54.82-1.65,1.65-1.31,1.92.51Z"/>
      <path class="cls-1" d="M40.61,132.82l.02,1.06c-2.26.55-3.38,3.76-5.88,3.25l-.78-1.48c1.87-1.88,4.66-1.27,6.63-2.83Z"/>
      <path class="cls-1" d="M170.05,235.83c.83.67,1.43,2.32,1.45,3.32-2.81-.07-3.98-3.12-5.23-5.26,1.29.22,2.69,1.06,3.78,1.93Z"/>
      <path class="cls-1" d="M216.07,92.08c1.61.33,1.54.99-.1,1.21-2.31.31-4.5,1.18-6.75,1.75-.32-1.54,5.9-4.49,6.85-2.96Z"/>
      <path class="cls-1" d="M175.6,222.77c.09,1.63-.59,1.64-1,.03-.42-.08-1.22-.53-1.22-1,0-.29.78-.72.64-1.02-.41-.88-1.04-1.47-1.21-2.26-2.67-1.4-1.11-2.67.88-1.29.5.88,3.79,1.9,1.92,5.53Z"/>
      <path class="cls-1" d="M23.62,142.96c-.36.38-.49.91-.71,1.41-.31.7.06,1.23.87,1.13-.93,1.34-3.09-.05-4.16.64-1.65,0-1.57-.68.1-1.03.7-1.39,2.31-2.68,3.9-2.14Z"/>
      <path class="cls-1" d="M155.83,135.51c-.44,1.53-1.24,2.79-1.66,4.96-.56-.37-.92-.7-1.42-.86.04-.58.04-1.17.11-1.75-1.65-.45-1.66-1.17.02-1.55-1.6-.85-.81-1.73.75-1.9,1.35-1.01,2.2-.58,2.2,1.1Z"/>
      <path class="cls-1" d="M81.22,216.98c.76.04.71.28-.02.69,1.79.95,1.37,1.87-.15,2.76.04.29-.19.65-.1.93-1.46-.29-2.42-1.72-3.98-1.7-.29-.51-.18-.55-.26-1.12l.98-.91c.33-.31.8.64,1.32.57.98-.13,1.52-.97,2.22-1.23Z"/>
      <path class="cls-1" d="M73.42,277.45c.28-1.42-.62-3.6.12-5.57,1.69-.04,1.24,1.74,1.78,2.75.87,1.61-.91,1.98-1.9,2.81Z"/>
      <path class="cls-1" d="M76.06,200.11c.27,1.03-.88,2.19-1.07,3.15-2.68-.94.28-2.7-1.34-5.71-.26-.64.67-1.48,1.39-1.43.19,1.55.7,2.81,1.02,3.99Z"/>
      <path class="cls-1" d="M175.6,222.77c1.22.94,2.37,1.98,3.19,3.29-1.29-.32-2.9-.23-4.14-.79-1.08.63-1.64-.59-.84-1.49.25-.31.44-.75.78-.97.25-.16.71.04,1-.03Z"/>
      <path class="cls-1" d="M154.38,171.74c-1.3,1.41-3.62.39-5.14,1.6.03-.81.23-1.91,1-2.65,1.05.17,2.16,0,2.86-.87.86.27,1.12,1.11,1.27,1.92Z"/>
      <path class="cls-1" d="M139.23,201.89c.93-1.51,1.66-1.09,1.45.73.65.85,1.21,1.71,1.67,2.58l-.68.89c-2.4-.58-3.91-2.6-4.41-4.96.33-1.15.68-1.27,1.14-.09.76-.19,1.03.1.82.85Z"/>
      <path class="cls-1" d="M183.26,233.02c-2.66-1.16-2.99-4.61-4.47-6.96,2.99.74,4.15,4.13,4.47,6.96Z"/>
      <path class="cls-1" d="M125.45,189.1c-.38.48-.22.85.17,1.28.44.48,1.25.5,1.84.57l-.04,1.62c-1.44-1.01-3.52-1.23-5.1-1.88.07-.63.27-1.3.94-1.75.57-.38,1.49-.25,2.18.17Z"/>
      <path class="cls-1" d="M87.84,97.52c.75,1.03,1.27,2.41.18,3.32-1.12-.21-2.06.28-3.04.66-1.29-1.81,1.42-2.57,2.01-3.95.27-.46.55-.47.85-.03Z"/>
      <path class="cls-1" d="M96.3,1.68c1.57.07,1.69,1.23.04,1.51-.92-.47-3-1.54-4.02-.5-1.4,1.44-.95,3.64-1.21,5.16.46,1.57-.18,1.69-.96.19-.25-1.35-1.46-2.53-.53-4.29.6-1.14,5.76-4.61,6.68-2.06Z"/>
      <path class="cls-1" d="M104.35,8.37c-2.45-.42-1.92-2.99-1.48-4.99,1.75,1.03,1.95,3.13,1.48,4.99Z"/>
      <path class="cls-1" d="M92.02,94.06c.03.87.4,1.41.88,2.64-2.18-.94-3.42.38-5.06.82-.26.07-.58-.02-.85.03.79-1.87,2.98-2.97,5.03-3.49Z"/>
      <path class="cls-1" d="M71.04,166.49c2.16-.19,2.41.99,1.31,2.67-.41.57-1.21.97-1.55,1.58-1.81-.61-1.01-2.79-1.46-4.16l1.69-.08Z"/>
      <path class="cls-1" d="M173.68,217.23c-.25.15-.49.35-.71.42-.7.22-.28.4-.17.87-.85-.9-2.15-1.28-3.31-.89.05.69-.2.75-.73.25l.38-1.41c.53-1.17.96-1.75,2.31-1.05,1.32-.44,1.73.94,2.23,1.82Z"/>
      <path class="cls-1" d="M118.93,63.03c-.72-.02-1.91-.2-1.75-1.39.19-1.37.39-2.55.23-3.69,1.85.96,1.99,3.2,1.52,5.08Z"/>
      <path class="cls-1" d="M117.28,57.04c-1.05-.24-1.73-1.13-1.99-2.21-.24-.98.37-1.94,1.13-2.64.44,1.6,1.62,3,.87,4.86Z"/>
      <path class="cls-1" d="M93.74,7.47c-1.11,1.27-2.28,2.87-.79,4.21-.76-.17-.79.33-.87.89-1.46-1.1-1.63-3.04-1.92-4.55l.96-.19c.89-.17,1.82-1.11,2.62-.37Z"/>
      <path class="cls-1" d="M171.35,212.83c.31.78-.04,1.78.1,2.59-.16.29-.49.87-.88,1.13-.35.24-.94.23-1.43-.08l-.32-.81c.37-.92.14-2,.78-2.83.08-1.81.82-1.42,1.75,0Z"/>
      <path class="cls-1" d="M124.93,74.8c.08.51-.11,1.05-.06,1.56-.92.22-1.79.62-2.7.69-.18-1.06-.2-1.69.28-2.19.78-2.3,1.71-2.33,2.48-.06Z"/>
      <path class="cls-1" d="M179.77,93.22c-1.42,1.66-4.14.9-6.03,1.79.35-.47.39-1.84,1.31-2.2,1.58-.62,3.36.1,4.72.41Z"/>
      <path class="cls-1" d="M119.6,67.83c.48-1.55,1.1-1.38,1.2.3.73.57,1.06,1.44,1.47,2.22-1.38.02-2.75.18-4.11.36l.04-.93c-2.26-1.4,0-4.89,1.4-1.95Z"/>
      <path class="cls-1" d="M77.73,287.49c-.55.58-1.82,2.31-2.38,1.5-1.16-1.66-1.39-2.99-1.04-3.93,2.11-.02,1.38,3.15,3.42,2.42Z"/>
      <path class="cls-1" d="M157.83,132.84c-.8.8-1.68,1.52-2.01,2.66-.79-.25-1.53-.62-2.2-1.1.05-.96.68-1.69,1.53-1.73.96-.04,1.82.16,2.68.17Z"/>
      <path class="cls-1" d="M100.57,45.34h-1.1c-1.96-.89-1.59-3.22-1.5-5.09,3.27,5.88-.51.61,2.86,4.22.21.22.45.6-.26.87Z"/>
      <path class="cls-1" d="M110.67,196.69c2,2.87.4-1.38-1.96,4.61-.27.03-.57-.14-.83-.08-.17-.97-.6-2.57.2-3.72.42-.6,1.75-.23,2.58-.81Z"/>
      <path class="cls-1" d="M140.3,199.36c-.46.65-1.12,1.28-1.89,1.68l-1.14.09c-.04-.17-.06-.45,0-.61.58-1.46,1.17-2.94,1.13-4.53.36.35,1.42-.16,1.59.62.22,1,.38,1.84.3,2.74Z"/>
      <path class="cls-1" d="M161.99,128.72c-.26.57-.24,1.62-1.05,2-.65.31-1.41.47-2.17.4.32-1.38,1.03-2.59,2.38-3.18.69-.37.94-.07.83.78Z"/>
      <path class="cls-1" d="M120.64,189.29l.87,1.5c-1.26.91-2.79.1-4.1.84.24-.68-.68-.82-.98-1.24l4.21-1.09Z"/>
      <path class="cls-1" d="M95.07,232.23l-1.33,3.39c-.64-.9-1.55-2.01-2.53-2.49-1.11-1.17-.58-1.69.97-1.18.97-.07,1.94.06,2.88.28Z"/>
      <path class="cls-1" d="M155.28,99.09c-.06.84-.63,2.14-1.89,1.64-.57-.22-.56-1.48-1.26-1.99l1.92-.72c.48-.18,1.07.39,1.23,1.07Z"/>
      <path class="cls-1" d="M19.72,145.11l-.1,1.03c-1.27.82-2.65,1.02-4.25,1.12.27-.56,2.76-3.5,3.33-3.13.35.22.66.62,1.02.98Z"/>
      <path class="cls-1" d="M91.39,259.96c-.04.61.15.94-.18,1.68l-.84.84c-1.16-.77-2.8-3.33-.93-4.23.98-.47.71.98.66,1.32-.06.38,1.09.54,1.3.38Z"/>
      <path class="cls-1" d="M209.37,84.14c-2.79,2.01-5.05.2-5.21,2.44l-5.07.05c.91-2.62,4.68.36,7.6-3.42.95.12,1.86.44,2.68.93Z"/>
      <path class="cls-1" d="M154.45,221.26c-.66-.73-1.26-1.76-1.8-2.47.76-.17,1.41-.8,2.81-.56-.34,1.3-.9,2.04-1.02,3.03Z"/>
      <path class="cls-1" d="M101.28,2.4l-1.59.09c-1.2.92-2.38.88-1.81-.75C98.41,1.29,99.22,0,100.07,0c1.13,0,1.14,1.71,1.21,2.4Z"/>
      <path class="cls-1" d="M172.95,94.97c-.19.73-.67,1.39-1.46,1.59-.74.19-1.51-.13-1.94-.79.5-.34.34-1.65,1.37-1.58.75.05,1.47.2,2.03.78Z"/>
      <path class="cls-1" d="M11.79,148.38c-1.04.87-1.37,2.04-1.69,3.92l-1.49-1.59c.07-1.53,1.54-1.79,2.42-2.54l.76.2Z"/>
      <path class="cls-1" d="M16.81,161.29c-.72.43-1.09,1.38-2.05,1.58-.74.16-1.34-.39-1.87-.66,1.07-1.08,2.55-1.87,3.92-.92Z"/>
      <path class="cls-1" d="M86.99,286.89c-.51.95-1.17,1.85-2.11,2.42-.89-1.39-1.93-1.73-3-1.81,1.66-.39,3.35-.63,5.11-.6Z"/>
      <path class="cls-1" d="M64.24,151.39c.07,1.27,1.15,1.83,2.61,2.9-.97.94-2.39.51-3.34-.14l-.12-2.76c.25-.65.71-.74.84,0Z"/>
      <path class="cls-1" d="M97.89,1.75c.58.28,1.12.71,1.81.75-.38.63-.89,1.11-1.65,1.44s-1.08-.44-1.69-.76l-.04-1.51c.47.15,1.14-.14,1.58.08Z"/>
      <path class="cls-1" d="M120.8,68.13c-.3-.23-.87-.12-1.2-.3-2.09.11-2.56-.67-1.42-2.34.85-.07,1.69-.34,2.36-.87.78.83,1.06,2.63.26,3.51Z"/>
      <path class="cls-1" d="M14.74,147.32c.37.61.96,1.18.4,2.45-1.12-.87-2.24-1.09-3.36-1.38l-.76-.2c1.1-.93,2.14-1.42,3.72-.86Z"/>
      <path class="cls-1" d="M151.96,215.35c-.28.44-.33,1.36-.9,1.68-1.27-.36-1.68-1.77-2.53-2.52l1.81-.85c1.03.05,1.54.66,1.63,1.69Z"/>
      <path class="cls-1" d="M102.17,211.15c-2.41-.05-2.3-1.96,0-2.52.92-.13,1.8-.41,2.62-.84-.74,1.27-.78,2.93-2.62,3.37Z"/>
      <path class="cls-1" d="M180.79,240.51c.02.3-.07.6-.07.9-.67-.05-1.34-.15-1.92-.51l.08-2.26c.62-.51,1.48-.64,1.63-.06.21.86.24,1.38.29,1.92Z"/>
      <path class="cls-1" d="M163.6,126.16c.27,1.22-.63,2.07-1.61,2.55-.3-.24-.58-.5-.83-.78.3-1.12,1.3-1.76,2.44-1.77Z"/>
      <path class="cls-1" d="M171.35,212.83h-1.75c-.78-1.05-.8-2.43.04-3.45.81.99,1.24,2.26,1.71,3.45Z"/>
      <path class="cls-1" d="M124.93,74.8c-.74-.69-1.78-.69-2.48.06.14-1.23.31-2.63,1.39-3.36.83.61.91,2.16,1.09,3.3Z"/>
      <path class="cls-1" d="M133.51,92.4c-1.61-.36-2.74-1.78-2.59-3.44,2.14.42,1.75,2.66,2.59,3.44Z"/>
      <path class="cls-1" d="M190.6,91.36c-.08.44,1.11,1.23.82,1.57-.55.66-1.66.53-2.07.32-.47-.23-.45-1.31-.35-1.8.4.07,1.48-1.01,1.61-.1Z"/>
      <path class="cls-1" d="M53.17,125.93c-.8.32-1.54,1.23-2.44.36.28-.49.28-1.09.64-1.46.51-.54,1.1-.24,1.64.15.22.15.07.65.16.96Z"/>
      <path class="cls-1" d="M76.07,259.12c-.12.34.95.95.74,1.25s-.87,1.3-1.22,1.18c-.47-.17-.88-1.35-1.36-1.59.23-.4.03-1.1.12-1.56l1.72.72Z"/>
      <path class="cls-1" d="M165.49,202.74c-.82.13-.94.98-.95,1.68-.87,1.66-2.1-.29-1.69-1.68.79-.33,1.4-.93,1.8-1.68.19.49.56,1.24.83,1.69Z"/>
      <path class="cls-1" d="M142.63,99.97c-.11.89.43,1.99-.52,2.67-.47-1.33-.62-2.07-1.16-2.73.51-.63,1.15.12,1.69.06Z"/>
      <path class="cls-1" d="M91.21,265.01c-.26.1-.59.06-.84.17-.38-.59-.41-1.43-.83-2,.31-.19.58-.43.82-.7l.84-.84c-.42.96.22,2.34,0,3.37Z"/>
      <path class="cls-1" d="M74.29,266.76c-.72-.01-.91-.52-.49-.94.3-.29.36-.65.53-.86.48.04.96-.03,1.26.09.53.21.61.68.47,1.22-.18.7-1.31.27-1.77.49Z"/>
      <path class="cls-1" d="M152.74,140.45c.07.6.23,1.92-.8,1.44-.36-.17-.87-.31-1.35-.28-.28-.26-.21-.88-.45-1.18.75-.72,1.71-.25,2.6.02Z"/>
      <path class="cls-1" d="M159.62,97.54c.38.38.25.84-.44,1.69-.71-.52-1.49-.83-2.29-.88.39-.48.59-1.32,1.3-1.37.57-.04.98.47,1.43.56Z"/>
      <path class="cls-1" d="M164.46,198.59c-1-.4-.64-1.83-.71-2.7.31.46,1.92-.1,1.58,1.18-.13.47-.88,1.03-.87,1.52Z"/>
      <path class="cls-1" d="M107.22,78.17c3.56,1.52,1.62,1.33,1.55.98-.06-.28.06-.6.23-.93,1.56-1.14,3.62-1.36,4.81-3.34.58,1.12,1.56,1.74,1.71,2.52.29,1.48,1.95,2.8,3.29,2.65,1.16-.8,1.51.29,1.05,1.48,1.24.25,1.72.91,1.44,1.99.08.9.54,1.76.17,3.37-1.97-.33-3.03-1.19-5.1-2.42-.72,1.29.57,1.73,1.03,2.83-1.67.44-2.23-.84-3.3-.92-1.61.11-1.83-.93-.35-1.66h-2.2c1.64,1.52,1.1,1.53-.97,1.05,1.2,1.17.97,1.7-.7,1.66-.8.12-2.23.79-3,.03-1.14-1.15-1.78-2.62-3.04-3.33l.59-1.78c-2.49-.31-2.43-2.3.19-5.98,1.52-.91,2.43-2.9,3.77-3.82.6.24,1.37,1.22,1.03,1.69-.23.32-1.02.33-1.45.8-.8.89-.43,2.18-.76,3.1Z"/>
      <path class="cls-1" d="M158.26,197.64c.19.05.4.05.58.11.5.18.95.66,1.48.76,1.02,2.2,2.11,4.24,3.33,6.46.24.44-.24.95-.81,1.22.54.89.52,1.89-.07,2.99,1.4-.06,2.22.94.92,1.95.73.26.72.55,0,.88-.36,0-1.17-.03-1.66.2-.55.26.27,2.27-.59,2.72-.28.15-.65-.41-1-.49-.33-1.2-1.66-1.84-2.65-2.28-.66-.17-1.03-.02-.84.66.02.75-.33,1.85-1.19,1.63-.64-.16-.99-.78-1.78-1.59-.48,1-.99,2.01-2.03,2.48-.36.01-.81.04-1.27-.13-.58-.2-.55-1-.36-1.56l1.53-2.45c.24-1.62,1.4-1.65,1.73-.05.12-1.34.4-2.47.84-3.39-1.5-.46-.43-2,.7-2.51.64.01,1.33,1.11,1.84.44.39-.51.13-1.83.53-2.2.99-.9,2.02-1.2,2.07-2.05.08-1.29-.85-2.98-2.34-1.82-.49.38-1.14,1.52-1.51,1.32-.46-.24-1.19-.83-1.25-1.25.13.91,1.29-5.73,1.42-3.8l1.03.25c.12,2.32.57,2.81,1.34,1.48Z"/>
      <path class="cls-1" d="M76.14,157.31c-.9,2.39-.89,2.66.01.82,1.71-.27,2.65,1.13,4.12,2.75,1.53,1.69-1.06,4.32-3.05,4.68-.79-.23-1.53-.22-2.24.04-2.06,1.86-3.7-.57-3.51-2.8-1.38-1.1.13-2.94.05-4.03-.12-1.56-1.74-2.73-.34-3.92.4-.11.85-.8,1.25-.78,2.41.12,1.62,4.24,3.26.71.41.79-.08,1.72.45,2.53Z"/>
      <path class="cls-1" d="M185.57,100.04c.84,1.65.57,3.36-.84,5.14-.89-.7-.58-1.59-1.78-2.61-1.25,3.42-3.82,3.41-6.31,3.24-.92-.06-1.98,1.04-2.74.91-1.21-.21-2.2-1.64-2.22-2.83.24-.67,1.77-1.9,2.53-2.3,1.57-.45,3.66.27,5.65-.07.38-.42.11-1.31.52-1.3.48.01,1.52.67,1.82.49,1.26-.74,2.2-1.52,3.36-.68Z"/>
      <path class="cls-1" d="M81.88,207.82c1.59-.07,1.55,1.21.05,1.64-.17,1.54.14,1.54.94,0-.55-1.45.15-1.81,1.37-.79.9,1.58.71,3.83,2.75,4.15.75.24.75.55.04.93-4.64,4.69-2.29,9.84-5.98,6.68-.77-.79-.1-1.86.15-2.76,0-1.46.67-1.7,1.6-.58.71-1.35.71-2.26-.01-2.71-.91,1.76-2.93.93-3.58-.75.26-.65-.05-1.9.38-2.42,1.3-1.55-.52-3.17-.97-4.9.07-.34-.07-.75.02-1.08,1.35.56,3.34.83,3.24,2.6Z"/>
      <path class="cls-1" d="M126.82,84.06c.62,1.83,1.81,3.35,2.74,4.95.87,1.55-.84,3.65-1.18,5.1l-.99.05c-1.58,1.55-2.44,1.4-3.29-.66-2.72-1.8-.17-2.84-.02-6.06-.72-.16-.69-.44,0-.84-.15-.5.12-1.22-.12-1.68.01-1.94,1.83-2.36,2.86-.84Z"/>
      <path class="cls-1" d="M109.31,150.5l-2.57-4.7c-1.47,3.08-4.96,5.27-8.23,3.71,5.66-.77,6.47-8.61,9.85-5.85,1.44,1.17,2.51,2.38,4.82,1.6-.5,1.89-1.98,2.04-3.16,3.06,1.8,1.15,1.28,1.03-.71,2.18Z"/>
      <path class="cls-1" d="M129.12,180.13c1.89,1.17,1.46,1.86-.72,1.53-1.15.05-1.69.85-2.59,2.08-.51.69.28,1.51.71,2.54-1.29,1.17-3.16.97-4.39,1.18l.17-1.48-1.59-3.47c-.71,0-1.56,1.5-1.98,1.06-.63-.68-1.54-1.74-1.42-2.34.14-.67,1.91-1.27,2.47-1.01.69-.78,1.84-1.19,2.6-.47.28-.03.56-.04.84-.03,1.2.65,2.33.75,3.37.3.74-.68,1.81-.54,2.51.12Z"/>
      <path class="cls-1" d="M148.73,140.64c-.46,1.02.39,1.93.68,3,.49,1.79-1.45,2.43-2.88,2.55-.53.04-.75,1.35-1.1,1.42-.64.13-1.3-.34-1.89-.47-.4-.51-1.32-.82-1.38-1.34-.13-1.27,3.4-6.07,3.85-6.27.97,1.78-.13,2.45.25,2.86.65.69,1.91,1.05,1.87.18-.06-1.11.06-1.66.59-1.94Z"/>
      <path class="cls-1" d="M103.19,205.83c.49-.3,1.03-.5,1.59-.63.45,2.01-2.07,1.91-2.61,3.42v2.52c-.66.22-1.05,1.36-1.69,1.68-.59,1.17-1.64.81-2.33-.18-1.67-.26-2.05-1.29-1.14-3.09.13-2.6,3.53-4.79,6.18-3.73Z"/>
      <path class="cls-1" d="M129.85,103.56c1.17,2.74,2.09-.44,6.06,4.06.75.17.77.45.08.84.88,2.22-.47,3.13-2.61,2.47-.96-.81-.42-2.35-1.53-3.42-.91-.88-2.28.49-2.87,1-.19,2.44-1.66,2.26-2.29.04-.76-.21-.77-.52-.07-.93-1.4-1.26-1.4-1.82,0-1.68.09-.68.46-1.24,1.09-1.68-1.01-.99-.65-1.44.6-.84.32-1.68,1.12-1.55,1.56.15Z"/>
      <path class="cls-1" d="M100.48,214.51c0,3.47-5.68,1.69-3.26,4.02-1.5.38-1.94,2.17-3.48,1.87-.85-.27-1.14-1.11-.84-2.52.16-.38-.55-1.09-.2-1.64.25-.4,1.02-.28,1.53-.68s-.04-1.41-.13-1.88c1-1.23,2.71-2.01,4.06-1.03.89.4,2.11,1.04,2.33,1.87Z"/>
      <path class="cls-1" d="M148.49,205.35c.39-2.14.8-2.02,1.72-.1.71.24.7.52,0,.84.56,1.51-.48,1.3-1.69.84,1.15,1.7,2.14,3.22-.14,3.99-.68-1-1.7.12-2.39.09l-1.39-3.15c-.47-1.06.65-2.4-.12-3.33.62-.5.3-1.48.88-2.64,2.27.52.95,3.46,3.13,3.46Z"/>
      <path class="cls-1" d="M152.65,204.88c-.31.75-.54.7-.68-.12-.44-.88-1.03-.72-1.76.49-.59.19-1.15.14-1.72.1-.25-1.6-.47-3.74-1.49-5.41-.09-.45.91-1.49,1.33-1.34,1,.39,1.35,1.41,2.21,1.4.6,0,1.17-.6,2.46-1.07l-.35,5.96Z"/>
      <path class="cls-1" d="M148.62,130.34c.76,1.26,1.91,2.64,2.43,4,.82.52,1.43,1.17,1.82,1.97-.17.44.04,1.07-.02,1.55-1.45-.88-3.74.34-5.33.06-1-.64-1.45-2-1.36-4.09.32-.83.13-1.58.04-2.74.18-.64,1.8-.57,2.42-.75Z"/>
      <path class="cls-1" d="M123.26,95.84c1.55.41,1.43,1.16-.15,1.5-1-.13-2.97.21-3.28,1.25l-.91,3.05c-1.38.57-2.62-2.72-2.04-3.79.89-1.62,2.17-2.6,3.09-4.6.66,1.82,1.64,3,3.29,2.58Z"/>
      <path class="cls-1" d="M74.98,165.6c1.11-1.3,1.81-.74,2.1.86-.2,1.29-1.46,2.41-.43,3.55l-.66-.02c-1.25-.04-2.46-.4-3.63-.82-.79-.59-1.25-1.69-1.31-2.67l-.22-3.65.65-.04,3.51,2.8Z"/>
      <path class="cls-1" d="M161.16,121.29c-.6-.16-1.29-.3-1.68-.84.44-1.62-.34-3-1.78-4.13l3.09-.17c.13-1.98,1.28-3.26,2.7-4.42.8,2.04-.53,2.92-1.74,4.22,1.69,1.19,3.08.93,3.72,2.5l-5.08-.18c-.34,1.61.44,2.23.78,3.01Z"/>
      <path class="cls-1" d="M67.44,118.46c1.45-2.14,3.42-3.97,5.21-5.83,1.3,1.81.22,3.62-.66,5.56-.13.28,1.14.99.91,1.34-.75,1.16-1.9-1.54-2.36-1.8-1.41-.78-1.29,2.34-2.4,2-.42-.13-.39-1.15-.7-1.27Z"/>
      <path class="cls-1" d="M127.39,94.15l.48,4.09c-1.22.84-2.58,1-3.22.86-.75-.15-1.41-1-1.56-1.76-.08-.42.03-1.09.15-1.5.24-.8.67-1.54.84-2.36,1.14-.09,2.32.03,3.29.66Z"/>
      <path class="cls-1" d="M154.37,120.11c.33.57.56,1.16,1.12,1.93.51.7.04,1.42-.9,1.71l-2.05,3.12c-.17.01-.34.11-.51.14-2.83-1.76.86-6.8.58-6.6.42-.32,1.22-.19,1.76-.3Z"/>
      <path class="cls-1" d="M97.01,209.56c1.53-.29,1.09,2.14,1.14,3.09-.74.38-1.15,1.48-2.16,1.56-.59.05-1.28-.33-1.9-.52-.27-1.33-1.78-3.42-.16-4.4.95.19,2.31,1.33,3.08.28Z"/>
      <path class="cls-1" d="M60.88,133.71c-.94,1.27-1.4,1.29-2.43.03.12-2.82,2.73-3.04.55-5.19,1.37.28,2.45-.1,3.74-.9-1.16,1.9-1.59,3.94-1.86,6.06Z"/>
      <path class="cls-1" d="M56.64,137.98c-.27,1.73-2.64,3.69-4.17,4.26-1.45-1-.75-4.36.88-5.13,1.15.3,2.25.6,3.29.87Z"/>
      <path class="cls-1" d="M139.4,109.31c-.04,1.08-.32,2.25-.42,3.26-2.27-1.35-4.23.08-5.6-1.64.99-.71,1.44-1.97,2.61-2.47,1.35-.91,2.55-.36,3.41.84Z"/>
      <path class="cls-1" d="M146.07,155.69c.34.19.67.41.97.65,1.39,1.03.54,2.36-1.02,2-.21.45-.48.86-.67,1.32-.84,0-2.12-.24-2.48-1.2-.24-.64-1.07-2.25-.41-2.5,1.58-.58,2.73.47,3.61-.28Z"/>
      <path class="cls-1" d="M103.87,157.46c-2.25-2.29-4.27-3.65-6.8-4.82,1.8-.75,3.72-1.28,4.99-.03.88.87,2.22,2.62,1.8,4.84Z"/>
      <path class="cls-1" d="M147.53,137.92c-.7-.12-2.62,1.28-2.82.02-.26-1.62,1.03-2.97,1.46-4.11.89.68,1.78.19,3.25,0-1.01,1.46-1.73,2.6-1.89,4.08Z"/>
      <path class="cls-1" d="M119.16,127.66c-.09-.3-.88-.74-.58-1.04.38-.38,1.34-.38,1.67-.82.57-.75-.53-2.39.44-2.33,1.08.07,2.16-.13,2.61.71-2.03.54-2.6,1.75-2.12,3.53.18.67-.06,1.04-.44,1.38-.36.32-.51.65-.84-.05-.15-.32-.32-.65-.75-1.38Z"/>
      <path class="cls-1" d="M95.42,91.42c.37-1.25,1.05-2.67,2.47-2.84-.14.72.37,1.04.77,1.19.49.17,1.1-.08,1.87.65-1.47-.17-1.56,2.3-2.4,2.51-1.46-.17-1.63-1.96-2.71-1.51Z"/>
      <path class="cls-1" d="M76.14,157.31c.13.2-.03.58.01.82.2,1.17.68,2.08,1.72,3.3-1.55.61-2.51-.12-3.23-.27-1.21-.25-1.62-2.76-.8-3.56.42-.41,1.82.49,2.31-.3Z"/>
      <path class="cls-1" d="M144.03,203.78c-.44.27-.91.48-1.41.64-.82,0-1.78-.95-1.94-1.79-.43-.34-.92-.59-1.45-.73-.4-1.01-.09-2.31,1.07-2.53,1.95.91,4.12,2.03,3.73,4.41Z"/>
      <path class="cls-1" d="M128.98,108.51c-1,.65.36,2.39-.09,3.02-.94,1.08-2.98.2-3.96.3-1.53-1.08.2-3.63,1.76-3.28l2.29-.04Z"/>
      <path class="cls-1" d="M102.02,141.62c.57.68-.61,2.44-1.23,3.12-.94-4.16-6.07-1.4-2.73-4.76.9,1.42,2.11,1.52,3.96,1.64Z"/>
      <path class="cls-1" d="M155.13,205.27c-.23.94-.16,1.65-.7,2.51-.31.89-.62,1.14-.94.76-.59,3.28-2.78.71-3.42-1.71l3.52-1.86c1.45-1.49,1.31-1.76,1.6-.93.13.38-.29,1.23-.06,1.23Z"/>
      <path class="cls-1" d="M115.43,183.45c.21.81,1.1,1.49.41,1.75-1.35-.13-2.63.05-4.52-.45,1.47-.51,1.63-1.84,2.57-2.77.87-.6,1.38-.11,1.54,1.47Z"/>
      <path class="cls-1" d="M153.59,204.96c.57,2.08-4.39,1.71-2.11,3.61.52.43,1.47.52,2.01-.04.78.47,1.27,2.33.09,2.63-.57.02-1.15.06-1.73.05-.25,0-.49-.19-.74-.23-1.4-.64-2.26-2-2.59-4.05.03-.81,1.2-.7,1.69-.84.32-1.51.9-1.95,1.76-1.33.15.26.55,0,.68.12.19.16.65.38.94.09Z"/>
      <path class="cls-1" d="M139.4,109.31c-1.2,1.15-2.38.06-3.41-.84l-.08-.84c.13-.37.7-1.92,1.76-1.64.96.26,1.76,2.39,1.72,3.33Z"/>
      <path class="cls-1" d="M55.62,136.2c1.2-1.39,2.82-.92,1.87.89-.25.33-.53.63-.85.9-.64.45-1.44.68-2.11.8-1.3.24-1.78-.56-1.19-1.68.74-.35,1.42-.85,2.27-.91Z"/>
      <path class="cls-1" d="M87.92,262.43c-1.24-.1-3.96.84-3.36-1.35.16-.56,1.88-.27,2.27-.66.28-.28-.76-.89-.71-1.32.54-.09.85-.57,1.6-.87l.2,4.2Z"/>
      <path class="cls-1" d="M129.98,185.9c-.39-1.48.17-2.19,1.66-1.73.84.32,1.81.2,2.26.66.69.72.76,2.57.06,2.62-1.54-1.02-3.22-.56-3.98-1.54Z"/>
      <path class="cls-1" d="M99.98,164.4c-1.93-1.39-2.62-2.24-3.5-3.43.85-.52,2.93-.5,3.22.2s.59,2.01.28,3.22Z"/>
      <path class="cls-1" d="M149.64,165.62c-1.22-.14-2.46-.06-3.77.23-.42-1.03-.25-1.92.25-2.63,1.21.56,2.7,1.27,3.52,2.4Z"/>
      <path class="cls-1" d="M90.56,218.03c-.72-.05-1.26-.64-1.42-1.04-.37-.95.17-1.19,1.69-3.1-.52,1.45.1,2.52-.27,4.15Z"/>
      <path class="cls-1" d="M119.16,127.66c-.33,1.27.12,2.36-.86,2.99-1.85-1.3-2.37-3.15-1.4-4.54.66,1.35,1.37,1.7,2.26,1.55Z"/>
      <path class="cls-1" d="M126.61,107.62l.07.93c-.8.98-1.68,1.98-1.76,3.28-.54.06-1.77-.98-1.6-1.51.41-1.28,1.74-1.63,1.6-2.7-.58-2.79.8-2.6,1.69,0Z"/>
      <path class="cls-1" d="M130.7,183.1c-.53-.79-1.41-1.18-2.3-1.44l.72-1.53c.45-.35,1.1-.94,1.74-.58.52.29,1.08,3.71,1.33,3.3-.25.4-1.16.27-1.49.25Z"/>
      <path class="cls-1" d="M85.22,135.03c1.22-1.39,1.89.58,2.38,1.01,1.05.92-.71,2.15-1.64,1.91-.79-.2-2.09-1.38-.74-2.92Z"/>
      <path class="cls-1" d="M184.73,105.18c2.01-5.42-4.52-3.92.84-5.14.79.57,1.52.98,2.62.96l-3.46,4.18Z"/>
      <path class="cls-1" d="M106.16,137.24c-1.59,1.33-2.05,2.77-4.7,3.41.58-2.19,2.15-4.37,4.7-3.41Z"/>
      <path class="cls-1" d="M113.13,87.42c-.65.09-.99.74-1.31,1.54-.64.29-1.67-.82-1.92-1.51,0-.64.27-1.2.7-1.66,1.61-.87,3.33-.28,2.53,1.63Z"/>
      <path class="cls-1" d="M104.45,82.37c.14.3.49.65.73.83.52.39.38,1.1-.27,1.04l-1.05-.09c-.89-.49-2.04-.57-3.24-.1-.23-.93-.06-1.4-.34-1.84.01-2.47,3.8-2.21,4.17.17Z"/>
      <path class="cls-1" d="M108.72,189.86c1.37,1.29-.92,1.76-2,2.2-1.14-.38-.74-1.19-.59-1.75.28-1.03.24-2.68,1.83-1.65.25.16-.52,1.1-.17,1.2.42.11.74.13.93,0Z"/>
      <path class="cls-1" d="M84.25,208.68c-.4.36-.87.62-1.37.79-.28.73-.59.72-.94,0l-.05-1.64c.59-.44.65-1.15,1.35-2.56.75,1,.42,2.37,1.02,3.42Z"/>
      <path class="cls-1" d="M136.21,162.3c-.25-1.15.12-2.88,1.51-3.96,1.28,1.1.35,2.34-1.51,3.96Z"/>
      <path class="cls-1" d="M81.48,271.74c-1.99-.22-2.36-2.9-1.82-5.13,1.35,1.16,1.69,2.62,1.82,5.13Z"/>
      <path class="cls-1" d="M49.23,143.03c-.38-1.84-.7-2.91-.72-4.24.86,1.08,1.8,1.53,1.95,2.16.18.76-.4,1.68-1.23,2.09Z"/>
      <path class="cls-1" d="M92.9,227.98c-1.34.96-2.63.05-1.69-1.41,1.58-.25,2.98-.94,4.21-1.96-.1,1.59-.73,3.35-2.53,3.37Z"/>
      <path class="cls-1" d="M80.67,260.26c.53-.59,1.72-.39,2.11.23.24.39-.06,1.32-.39,1.98-.21.42-.51.42-.96.25-1.14-.43-1.62-1.5-.76-2.46Z"/>
      <path class="cls-1" d="M38.18,143.06c-1.05.08-2,.6-1.96.08s-.05-1.11.21-1.46c.35-.47.99.45,1.71-.06,1.26-.62,1.17,1.35.04,1.44Z"/>
      <path class="cls-1" d="M158.26,197.64c.07.29.5,1.45-.55,1.78-1.76-.55-1.67-2.35-1.82-3.51-.03-.22.06-.51-.02-.71.65-.11,1.47-.1,1.85.47s.45,1.33.54,1.96Z"/>
      <path class="cls-1" d="M156.09,184.61l-1.63.29c-.12-.95-.21-2.49-.85-3.22,1.7-.18,1.82,1.73,2.48,2.92Z"/>
      <path class="cls-1" d="M92.9,227.98c-.36.61-.93,1.04-1.6,1.27-.48-.4-1.3-.66-1.57-1.11-.55-.9.86-1.47,1.49-1.57.36.67.99,1.12,1.69,1.41Z"/>
      <path class="cls-1" d="M128.3,103.42c.22.48-.35.64-.6.84.1,1.38-1.36,1.04-1.93,0-.24.73-.52.72-.84,0,.29-1.06.96-1.78,1.67-2.54,1.69-.31,3.09.25,1.7,1.7Z"/>
      <path class="cls-1" d="M60.88,133.71c-.15,1.16-.34,2.22-1.57,2.62-1.76.58-2.76-1.02-.87-1.78.05-.26,0-.55,0-.81.71-.68,1.7-.69,2.43-.03Z"/>
      <path class="cls-1" d="M90.19,220.31c1.3-.64,1.82.58,1.02,1.78-.92.07-2.51,1.5-3.04-.17-.35-1.12,1.43-1.23,2.03-1.61Z"/>
      <path class="cls-1" d="M162.57,110.09c-.58-.6.07-2.5-1.49-2.94,1.58-1.14,1.78.46,2.61.83,1.15.51.86,1.76-1.12,2.11Z"/>
      <path class="cls-1" d="M122.32,185.96c-1.5-.28-1.71-2.17-1.59-3.47,1.12,0,2.5-.26,3.39.46-.77.8-1.83.2-2.22.83-.28.46.49,1.5.41,2.17Z"/>
      <path class="cls-1" d="M98.72,169.22c.02,1.26-1.33.1-1.87-.38-1.02-.89-.27-2.31.88-2.08.39.08.36,1.44.99,2.45Z"/>
      <path class="cls-1" d="M58.45,134.55c-.14.74.09,1.54.87,1.78-.6.2-1.09.83-1.82.74-.31-.74-1.15-.87-1.87-.89.26-.42.35-1.3.81-1.46.77-.27,1.41-.26,2.01-.18Z"/>
      <path class="cls-1" d="M129.85,103.56c-.52-.05-1.03-.15-1.56-.15-.3-.79-.92-1.39-1.7-1.7.68-.73,1.75-.49,2.79-.52,1.17-.04.44,1.79.47,2.37Z"/>
      <path class="cls-1" d="M113.77,84.74c.19.47.35,1.17.35,1.66,0,.36-.63.98-.99,1.02-.58-.88-1.54-1.35-2.53-1.63l.97-1.05c1.04-2.1,1.78-2.1,2.2,0Z"/>
      <path class="cls-1" d="M126.61,180c-.37.34-.68,1.68-1.24,1.58-.94-.17-1.6-1.27-2.13-1.88.86-.98,2.28.21,3.37.3Z"/>
      <path class="cls-1" d="M126.61,105.94v1.68c-.34-.14-.73-.54-1.28-.8-.22-.11-.56.54-.41.8-1.03-.93-.31-2.22,0-3.37h.84c1.23.24,1.71.67.84,1.68Z"/>
      <path class="cls-1" d="M189.94,103.32c-.28,1.09-.88,2.06-1.87,2.63.21-.77-1.03-1.62-.74-2.45.36-1.02,1.01-.86,1.28-.94.51-.16,1.24.2,1.33.76Z"/>
      <path class="cls-1" d="M93.74,220.4c-.53.01-1.14.73-1.69.84-1.05-.29-.99-1.37,0-1.68,0-.69.61-1.13.84-1.68,1.03.38.88,1.61.84,2.52Z"/>
      <path class="cls-1" d="M89.02,234.14c-.99.7-1.34,1.16-1.59,1.4-.19.19-1.1.23-1.19-.41-.06-.42,1.14-.95,1.4-1.56.91-1.05,2.37-.63,1.38.57Z"/>
      <path class="cls-1" d="M124.08,86.58c.07.26.01.57,0,.84-.5.27-.71,1.82-1.74,1.69-1.46-.19-.71-1.67.05-2.13.47-.28,1.11-.37,1.69-.4Z"/>
      <path class="cls-1" d="M101.42,201.05c-1.21-1.27-1.75-2.29-1.1-4.15,1.73.41.84,2.8,1.1,4.15Z"/>
      <path class="cls-1" d="M77.22,165.56l-.14.89c-.73-.22-1.53-.41-2.1-.86-.86-.6-.01-1.04.6-1.55.32-.26,1.07-1.38,1.25-.45l.38,1.96Z"/>
      <path class="cls-1" d="M117.24,161.48c-.61-.17-1.54-.85-1.46-1.27s.85-1.17,1.02-2.75c1.13,1.12.43,2.39.44,4.01Z"/>
      <path class="cls-1" d="M122.4,179.74c-.8.86-1.75.88-2.6.47.12-.37.7-1.59,1.29-1.77.48-.14,1.18.86,1.31,1.3Z"/>
      <path class="cls-1" d="M130.7,183.1c.26.4.6.74.94,1.07-.52.61-1.07,1.19-1.66,1.73-.18-.24-.61-.27-.77-.57.2-.26-.12-.94.03-1.46.14-.46.87-.81,1.45-.78Z"/>
      <path class="cls-1" d="M144.03,188.4c-1.47.14-2.27-1.15-3.14-2.38,1.66-.38,2.55.57,3.14,2.38Z"/>
      <path class="cls-1" d="M17.9,152.31c-.89.01-1.1-.88-.87-1.31.15-.29.98-.45.88-1.75.98-.77.84.53.83,1.01-.02.73.31,2.04-.83,2.06Z"/>
      <path class="cls-1" d="M87.03,213.76l-.04-.93c.12-.38-.05-1.68.76-1.72,1.29-.06.98,1.3.92,2.12-.04.56-1.16.35-1.64.53Z"/>
      <path class="cls-1" d="M105.17,193.02l1.51-.3c.25.12,1.73,1.03,1.28,1.19-.79.27-1.6,1.25-2.07,1.1s-1.39-1.71-.72-1.99Z"/>
      <path class="cls-1" d="M92.18,231.95c-.48.24-.85.65-.97,1.18-.41-.21-1.43-.8-1.54-1.33-.09-.45,1.36-.75,1.54-1.29.62.22.98.8.97,1.45Z"/>
      <path class="cls-1" d="M101.33,193.41c-2.93.36-2.53-.08-1.49-2.18.63-.35,1.01,1.5,1.49,2.18Z"/>
      <path class="cls-1" d="M126.22,134.57c1.52-1.36-1.57,6.49-1.36,2.04.04-.92.38-1.26,1.36-2.04Z"/>
      <path class="cls-1" d="M94.5,194.79c.33-.11.12,1.2-.34,1.21-.85.02-1.91.49-2.37-1.05.71-1,1.21.36,2.72-.15Z"/>
      <path class="cls-1" d="M79.28,196.11c.39.91-1.03.48-1.56,1.15-.57.72-1.25-.2-1.73-1.1,1.06-.3,1.46-.22,3.29-.05Z"/>
      <path class="cls-1" d="M92.05,219.56v1.68l.08,1.02c-.28.1-.7.08-.92-.18.06-.76-.3-1.48-1.02-1.78.57-.36,1.15-.72,1.86-.74Z"/>
      <path class="cls-1" d="M86.17,270.97c-.14.67-.1,1.71-1.26,2.33-.48.26-.6-1.24-.43-1.96.12-.49,1.11-.45,1.69-.37Z"/>
      <path class="cls-1" d="M115.43,183.45c-.69-.27-1.26-.78-1.54-1.47.49-1.42,1.42-1.37,1.76-.7.32.62-.39,1.5-.22,2.18Z"/>
      <path class="cls-1" d="M58.8,124.62c.55-.22.67,2.16-.06,2.37-.58.17-1.13-.03-1.26-.45-.2-.67.22-1.47,1.31-1.91Z"/>
      <path class="cls-1" d="M104.64,76.39c.84,2.05-1.12,4.02-.19,5.98l-4.17-.17c-.05-.92-.2-1.7-.46-2.3-.45-1.05.61-1.43,1.46-1.22,1.66.42,2.06-1.52,3.36-2.3Z"/>
      <path class="cls-1" d="M119.6,67.83c-.3-.61-.92-.46-1.06-.15-.42.87-.31,1.54-.34,2.11-.63.11-1.51.53-1.7.06-.37-.91-.27-1.75-.19-2.44-1.42-.85-.3-1.52,1.03-1.91.27.03.57.02.84,0,.72.61,1.3,1.39,1.42,2.34Z"/>
      <path class="cls-1" d="M107.09,68.81c1.1,1,2.6.6,4.42,1.29-6.61.77-3.82,2.63-5.82,1.09l-.08-1.31.06-.91c-.02-2.09.59-2.03,1.43-.16Z"/>
      <path class="cls-1" d="M108.07,60.49c-.21,2.1-.13,4.42-2.53,4.24.75-1.48.99-2.76-.02-4.05,1.17-.4,1.84-.16,2.54-.19Z"/>
      <path class="cls-1" d="M108.07,60.49c.13-1.28-.25-2,.56-3.95,1.09,1.69,2.05,1.67,2.03,2.6,0,.4.05,1.34-.74,1.1-.38-.12-.87-.35-1.85.26Z"/>
      <path class="cls-1" d="M107.09,68.81l-1.43.16c.07-1.1-.17-2.09-.98-3.28.93.08,1.81.28,2.13.62.59.62.38,1.8.28,2.5Z"/>
      <path class="cls-1" d="M95.02,11.28c-.06-.43.69-.72.81-.92.17-.28-.5-.81-.31-.94,1.15-.79,1.78-.04,1.64.98-.07.53.02.91-.82,1.72-.37.36-1.12.5-1.31-.84Z"/>
      <path class="cls-1" d="M117.34,65.49l-1.03,1.91c-.63-.09-1.29.1-2.39-.39.74-1.49,2.08-1.66,3.42-1.51Z"/>
      <path class="cls-1" d="M109.01,78.22c.16.55.65.66,1.63,1.07-.18.82-1.44.62-1.97.55-.62-.09-1.65-1.1-1.44-1.67l1.78.05Z"/>
      <path class="cls-1" d="M168.65,228.79c1.05,4.69-.42-.11-4.53-1.36-.69-.21-1,1.4-2,1.36-.45-1.5.55-2.85,1.43-4.01,1.26,2.05,4.08,1.83,5.11,4.02Z"/>
      <path class="cls-1" d="M168.76,217.88l.73-.25.13,2.83c.04.89-.84.97-1.28.79-.17-.07-1.18-3.06-.75-3.2.41-.14.8-.14,1.17-.17Z"/>
      <path class="cls-1" d="M165.39,211.15c.79.52,1.31,2.79.5,3.24-.36.2-.99-.87-1.42-.72.08-.62-.31-1.27-.77-1.65v-.88c-.09-1.57,1.32-1.45,1.69,0Z"/>
      <path class="cls-1" d="M173.81,223.77l.84,1.49c-.37.19-1.33,1.79-1.59.61-.11-.49-.51-1.25-.81-1.71-.22-.33,1.42-.52,1.56-.39Z"/>
      <path class="cls-1" d="M153.62,134.41c-.04.71-.48,1.29-.75,1.9-.46-.05-2.09.15-2.56-.44-.26-.33.83-1.12.74-1.53l2.57.06Z"/>
      <path class="cls-1" d="M152.54,126.87c-.19-1.43.46-3.05,2.05-3.12,0,1.41-.42,3.01-2.05,3.12Z"/>
      <path class="cls-1" d="M126.63,81.31c.35.83-.08,1.93.2,2.75-.92.38-1.87.69-2.86.84l-1.01-1.99c-.48-.94-1.16.34-1.64.62-.69.4-1.35.1-1.44-.63-.04-.32.19-1.12,0-1.36-.81-.97-.37-1.37.84-.84.16-1.02-.02-2.39,1.72-2.54-.24,1.72.09,3.33,1.5,3.78.74.23,1.76-.19,2.69-.62Z"/>
      <path class="cls-1" d="M120.71,80.69l-.84.84c-.37-.46-.95-.82-1.05-1.48.27-.07.51-.66.84-.86.36-.22.9-.34,1.04.15.15.52-.04,1,.01,1.35Z"/>
      <path class="cls-1" d="M157.8,212.17l-.84.66c-.76.13-.93-.46-.87-1.25.04-.53-.12-1.54.88-.95.54.32.45,1.37.84,1.54Z"/>
      <path class="cls-1" d="M147.75,158.99c-.59-.17-1.17-.39-1.73-.65.31-.68.62-1.36,1.02-2l1.89.1c.89.05.62,1.21.08,1.66-.33.27-.74.68-1.26.89Z"/>
      <path class="cls-1" d="M82.78,214.38c1.19-.29,1.19.62.01,2.71-.39.47-1.01.56-1.6.58.06-.21,0-.47.02-.69-1.2-.71-2.62-1.85-2.02-3.35,1.23.1,2.49.11,3.58.75Z"/>
      <path class="cls-1" d="M162.86,202.73c.36.76.87,1.39,1.69,1.68,0,.66-.15,1.44-.84,1.68-.15.76-.44.78-.85.1.3-1.84-1.56-3.28-3.36-3.63,1.64-1.49,1.42-2.82.84-4.05,2.19.41,1.71,2.46,2.53,4.21Z"/>
      <path class="cls-1" d="M165.4,209.25c0,.25.21.5.17.75l-.19,1.15h-1.69c-.64-.42-.52-1.45-.92-1.95-.49-2.56,1.72-1.6,2.62.06Z"/>
      <path class="cls-1" d="M163.7,206.1c.79.93,1.65,1.89,1.7,3.16-.87.03-1.83-.66-2.62-.06-.49-.51-1.55-.85-1.37-1.75.14-.7,1.05-.92,1.44-1.25l.85-.1Z"/>
      <path class="cls-1" d="M100.48,212.83v1.68c-.55,0-1.17-.04-1.71-.39-.45-.29-.59-.91-.62-1.48.68-.29,1.63.13,2.33.18Z"/>
      <path class="cls-1" d="M142.63,204.41l-.27.79c-.7-.67-2.88-1.58-1.67-2.58.85.34,1.64.9,1.94,1.79Z"/>
      <path class="cls-1" d="M151.12,210.99c-.49.25-.96.49-1.6.66-.46.12-.83-.27-1.13-.72.31-1.31.09-2.66.14-3.99,1.23,1.15,3.28,2.17,2.59,4.05Z"/>
      <path class="cls-1" d="M140.3,199.36c-.2.94-.42,1.82-1.07,2.53-.31-.24-.59-.53-.82-.85.04-.44.04-.89.13-1.22.22-.8,1.11-.45,1.76-.47Z"/>
      <path class="cls-1" d="M113.77,84.74h-2.2c1.4-1.52-.03-4.56,3.05-5.03-.3,1.86-1.51,3.41-.85,5.03Z"/>
      <path class="cls-1" d="M108.73,83.13c-1.42.36-2.68-.76-2.23-2.48.93.53,1.62.97,2.23,2.48Z"/>
      <path class="cls-1" d="M153.58,211.17l-.09-2.63c.1-.44.48-.75.94-.76-.51.82.54,2.27.83,3.12-.81.45-1.27.26-1.68.27Z"/>
      <path class="cls-1" d="M82.79,217.09v-2.71c.68-.32,1.25-1.1,2.6-.48l-2.6,3.19Z"/>
      <path class="cls-1" d="M81.94,209.46h.94c-.07.6.36,2.6-.91,2.54-1.68-.09-.55-1.95-.03-2.54Z"/>
      <path class="cls-1" d="M127.7,104.26c.14.38.63.99.42,1.32-.36.57-1.11.4-1.51.36-.45-.46-.71-1.06-.84-1.68h1.93Z"/>
      <path class="cls-1" d="M151.97,204.76c-.16.76-1.06,1.13-1.76,1.33v-.84c.09-.82-.2-1.72.04-2.14.38-.67,1.73-.55,1.87.17.1.51-.2,1.07-.16,1.48Z"/>
    </g>
  </g>
</svg>