<?xml version="1.0" encoding="UTF-8"?>
<svg id="Calque_2" data-name="Calque 2" xmlns="http://www.w3.org/2000/svg" viewBox="0 0 2264.06 2153.25">
  <defs>
    <style>
      .cls-1 {
        fill: #ff129f;
      }
    </style>
  </defs>
  <g id="linkedin_post" data-name="linkedin post">
    <g>
      <polygon class="cls-1" points="1132.03 1644.32 433.35 2151.94 700.22 1330.59 1.54 822.97 865.16 822.97 1132.03 1.62 1398.9 822.97 2262.52 822.97 1563.84 1330.59 1830.71 2151.94 1132.03 1644.32"/>
      <path d="M1132.03,3.24l266.29,819.54.22.69h862.44l-697.14,506.5-.59.43.22.69,266.29,819.54-697.14-506.51-.59-.43-.59.43-697.14,506.51,266.29-819.54.22-.69-.59-.43L3.08,823.47h862.44l.22-.69L1132.03,3.24M1132.03,0l-267.24,822.47H0l699.63,508.31-267.24,822.47,699.63-508.31,699.63,508.31-267.24-822.47,699.63-508.31h-864.8L1132.03,0h0Z"/>
    </g>
  </g>
</svg>